<svg width="19" height="16" viewBox="0 0 19 16" fill="none" xmlns="http://www.w3.org/2000/svg">
<path fill-rule="evenodd" clip-rule="evenodd" d="M3 3.5V1.5C3 0.947715 3.44772 0.5 4 0.5H18C18.5523 0.5 19 0.947715 19 1.5V11.5C19 12.0523 18.5523 12.5 18 12.5H16V14.5C16 15.0523 15.5523 15.5 15 15.5H1C0.447715 15.5 0 15.0523 0 14.5V4.5C0 3.94772 0.447715 3.5 1 3.5H3ZM15 12.5H4C3.44772 12.5 3 12.0523 3 11.5V4.5H1V14.5H15V12.5ZM4 1.5V11.5H18V1.5H4ZM18 11.5H4V10.5L7 7.5L10 9.5L14 5.5L18 10.5V11.5ZM9.5 6.5C8.67157 6.5 8 5.82843 8 5C8 4.17157 8.67157 3.5 9.5 3.5C10.3284 3.5 11 4.17157 11 5C11 5.82843 10.3284 6.5 9.5 6.5Z" fill="white"/>
</svg>
