<svg  height="50px" width="50px" xml:space="preserve" xmlns="http://www.w3.org/2000/svg" xmlns:xlink="http://www.w3.org/1999/xlink"><g id="color_x5F_fill"><path d="M69.608,36.263c-2.461,0.753-6.146-1.858-4.39-6.23c0.923-2.296,3.241-2.915,6.001-1.429   C73.389,29.771,73.724,35.004,69.608,36.263z M73.47,24.873c7.219,6.212,5.38,20.909,5.327,29.23   c-0.024,3.819,0.224,7.535-0.021,10.619c-0.561,7.062-1.927,11-9.862,12.89c-5.723,1.361-11.463,1.134-17.269,0.838   c-4.155-0.212-8.278-0.198-12.435-0.042c-3.456,0.13-7.211,0.074-10.335-1.623c-7.6-4.126-7.817-18.197-7.554-26.196   c0.058-1.721,0.092-3.423,0.052-5.087C21.13,35.393,23.411,22.349,34.921,22.04c8.96-0.24,17.909-0.65,26.866-0.335   C65.765,21.846,70.309,22.153,73.47,24.873z M84.805,38.225c-0.19-6.262-1.216-12.49-5.41-16.852   c-3.221-3.349-7.939-4.823-12.419-5.543c-11.36-1.827-23.396-0.833-34.824-0.086c-5.573,0.365-12.759,4.619-14.854,10.014   c-2.074,5.338-2.034,10.383-2.088,16.021c-0.039,4.126-0.115,8.256,0.056,12.378c0.298,7.213-0.217,13.506,2.455,20.36   c0.553,1.418,1.229,2.578,2.264,3.737c2.299,2.574,4.439,4.453,7.758,5.438c4.339,1.287,8.985,0.925,13.506,0.925   c10.439,0,22.58,2.144,32.537-1.752c8.211-3.212,11.145-11.053,10.919-19.185c-0.124-4.492,0.153-8.974,0.061-13.461   C84.689,46.566,84.932,42.388,84.805,38.225z M67.628,47.814c-0.541-3.275-2.104-6.834-4.214-9.35   c-3.919-4.672-13.066-9.689-24.08-2.85c-5.521,3.429-7.83,12.426-7.011,17.993c0.114,0.779,0.283,1.536,0.501,2.27   c3.218,10.837,17.181,16.403,26.652,9.619C64.877,61.628,68.742,54.561,67.628,47.814z M61.167,52.918   c-1.288,5.356-6.084,9.321-11.681,8.832c-4.872-0.427-8.3-3.021-9.81-6.562c-1.203-2.821-1.188-6.245,0.284-9.654   c2.256-5.222,8.778-7.989,14.07-5.657C58.644,41.908,62.371,47.911,61.167,52.918z" fill="#50FF1F"/></g><g id="offset_x5F_print_x5F_outline"/></svg>