<svg width="0" height="0" class="hidden">
  <symbol xmlns="http://www.w3.org/2000/svg" viewBox="0 0 15 7" id="arrow">
    <path fill-rule="evenodd" clip-rule="evenodd" d="M0 3v1h11v3l4-3.5L11 0v3H0z"></path>
  </symbol>
  <symbol xmlns="http://www.w3.org/2000/svg" viewBox="0 0 19 16" id="photo">
    <path fill-rule="evenodd" clip-rule="evenodd" d="M3 3.5v-2a1 1 0 011-1h14a1 1 0 011 1v10a1 1 0 01-1 1h-2v2a1 1 0 01-1 1H1a1 1 0 01-1-1v-10a1 1 0 011-1h2zm12 9H4a1 1 0 01-1-1v-7H1v10h14v-2zM4 1.5v10h14v-10H4zm14 10H4v-1l3-3 3 2 4-4 4 5v1zm-8.5-5a1.5 1.5 0 110-3 1.5 1.5 0 010 3z"></path>
  </symbol>
  <symbol xmlns="http://www.w3.org/2000/svg" viewBox="0 0 18 18" id="search">
    <path fill-rule="evenodd" clip-rule="evenodd" d="M17.435 16.395l-4.289-4.455a7.238 7.238 0 001.707-4.673C14.853 3.26 11.59 0 7.577 0S.3 3.26.3 7.267c0 4.008 3.264 7.268 7.277 7.268a7.206 7.206 0 004.168-1.315l4.322 4.49c.181.187.424.29.684.29a.948.948 0 00.684-1.605zm-9.858-14.5a5.381 5.381 0 015.378 5.372 5.381 5.381 0 01-5.378 5.372 5.381 5.381 0 01-5.379-5.372 5.381 5.381 0 015.379-5.371z"></path>
  </symbol>
  <symbol xmlns="http://www.w3.org/2000/svg" viewBox="0 0 17 17" id="download">
    <path fill-rule="evenodd" clip-rule="evenodd" d="M16 12.426c0-.237.263-.426.5-.426s.5.189.5.426v4.134a.44.44 0 01-.432.44H.426A.435.435 0 010 16.56v-4.134C0 12.19.263 12 .5 12s.5.189.5.426V16h15v-3.574zM9 0v10h3l-3.5 4L5 10h3V0h1z"></path>
  </symbol>
  <symbol xmlns="http://www.w3.org/2000/svg" viewBox="0 0 56 72" id="file">
    <path fill-rule="evenodd" clip-rule="evenodd" d="M40 0l16 16v52a4 4 0 01-4 4H4a4 4 0 01-4-4V4a4 4 0 014-4h36zm-4 20V4H4v64h48V20H36z"></path>
  </symbol>
  <symbol xmlns="http://www.w3.org/2000/svg" viewBox="0 0 15 7" id="left-arrow">
    <path fill-rule="evenodd" clip-rule="evenodd" d="M15 3v1H4v3L0 3.5 4 0v3h11z"></path>
  </symbol>
  <symbol xmlns="http://www.w3.org/2000/svg" viewBox="0 0 18 17" id="home">
    <path fill-rule="evenodd" clip-rule="evenodd" d="M2 17h5v-6h4v6h5v-7h2L9 0 0 10h2v7z"></path>
  </symbol>
  <symbol xmlns="http://www.w3.org/2000/svg" viewBox="0 0 15 15" id="clock">
    <path fill-rule="evenodd" clip-rule="evenodd" d="M7.5 14.25a6.75 6.75 0 110-13.5 6.75 6.75 0 010 13.5zm.75-6.75v-3a.75.75 0 00-1.5 0v3.75c0 .414.336.75.75.75h2.25a.75.75 0 000-1.5h-1.5z"></path>
  </symbol>
  <symbol xmlns="http://www.w3.org/2000/svg" viewBox="0 0 22 28" id="bookmark">
    <path fill-rule="evenodd" clip-rule="evenodd" d="M3.5.5h15a3 3 0 013 3v24L11.142 20 .5 27.5v-24a3 3 0 013-3z"></path>
  </symbol>
  <symbol xmlns="http://www.w3.org/2000/svg" viewBox="0 0 15 11" id="eye">
    <path fill-rule="evenodd" clip-rule="evenodd" d="M15 5.262s-3 5.113-7.5 5.113S0 5.262 0 5.262 3 .625 7.5.625 15 5.262 15 5.262zM7.5 2.875a2.629 2.629 0 012.625 2.626A2.626 2.626 0 117.5 2.875zm-.001 3.938c.724 0 1.31-.591 1.31-1.316 0-.726-.587-1.317-1.31-1.317-.724 0-1.311.59-1.311 1.316 0 .726.587 1.317 1.31 1.317z"></path>
  </symbol>
  <symbol xmlns="http://www.w3.org/2000/svg" viewBox="0 0 18 18" id="pencil">
    <path fill-rule="evenodd" clip-rule="evenodd" d="M0 14.2V18h3.8l11-11.1L11 3.1 0 14.2zM17.7 4c.4-.4.4-1 0-1.4L15.4.3c-.4-.4-1-.4-1.4 0l-1.8 1.8L16 5.9 17.7 4z"></path>
  </symbol>
  <symbol xmlns="http://www.w3.org/2000/svg" viewBox="0 0 15 15" id="loading">
    <path fill-rule="evenodd" clip-rule="evenodd" d="M3.432 10.818A5.25 5.25 0 0012.75 7.5h1.5a6.75 6.75 0 01-11.883 4.383l-.977.977a.375.375 0 01-.64-.265v-3.22C.75 9.168.918 9 1.125 9h3.22a.375.375 0 01.265.64l-1.178 1.178zm8.136-6.636A5.25 5.25 0 002.25 7.5H.75a6.75 6.75 0 0111.883-4.383l.977-.977a.375.375 0 01.64.265v3.22a.375.375 0 01-.375.375h-3.22a.375.375 0 01-.265-.64l1.178-1.178z"></path>
  </symbol>
  <symbol xmlns="http://www.w3.org/2000/svg" viewBox="0 0 477.73 477.73" id="global">
    <path d="M433.562 100.983a3.987 3.987 0 00-.051-.461c-.597-.853-1.331-1.587-1.946-2.423A244.794 244.794 0 00417.4 80.554a262.531 262.531 0 00-4.13-4.557 236.39 236.39 0 00-16.145-15.718c-1.041-.922-2.014-1.877-3.055-2.782a239.198 239.198 0 00-45.295-30.583c-.649-.341-1.331-.631-1.997-.973a237.347 237.347 0 00-22.187-9.882c-1.707-.614-3.26-1.195-4.881-1.707a241.293 241.293 0 00-20.48-6.366c-2.048-.546-4.096-1.109-6.178-1.587-6.827-1.587-13.653-2.799-20.634-3.789-2.116-.307-4.198-.717-6.332-.973a224.367 224.367 0 00-54.136 0c-2.133.256-4.215.666-6.332.973-6.98.99-13.875 2.202-20.634 3.789-2.082.478-4.13 1.041-6.178 1.587a230.801 230.801 0 00-20.48 6.366c-1.707.58-3.26 1.161-4.881 1.707a237.202 237.202 0 00-22.187 9.882c-.666.341-1.348.631-1.997.973a239.258 239.258 0 00-45.449 30.583c-1.041.904-2.014 1.86-3.055 2.782a221.975 221.975 0 00-16.145 15.718 262.531 262.531 0 00-4.13 4.557 233.62 233.62 0 00-14.165 17.544c-.614.836-1.348 1.57-1.946 2.423a3.873 3.873 0 00-.205.461c-58.866 82.497-58.866 193.267 0 275.763.058.158.126.312.205.461.597.853 1.331 1.587 1.946 2.423a238.636 238.636 0 0014.165 17.545 262.531 262.531 0 004.13 4.557 241.8 241.8 0 0016.145 15.718c1.041.922 2.014 1.877 3.055 2.782a239.198 239.198 0 0045.295 30.583c.649.341 1.331.631 1.997.973a237.347 237.347 0 0022.187 9.882c1.707.614 3.26 1.195 4.881 1.707a241.293 241.293 0 0020.48 6.366c2.048.546 4.096 1.109 6.178 1.587 6.827 1.587 13.653 2.799 20.634 3.789 2.116.307 4.198.717 6.332.973a224.367 224.367 0 0054.136 0c2.133-.256 4.215-.666 6.332-.973 6.98-.99 13.875-2.202 20.634-3.789 2.082-.478 4.13-1.041 6.178-1.587a228.456 228.456 0 0020.48-6.366c1.707-.58 3.26-1.161 4.881-1.707a237.202 237.202 0 0022.187-9.882c.666-.341 1.348-.631 1.997-.973a239.245 239.245 0 0045.295-30.583c1.041-.905 2.014-1.86 3.055-2.782a217.289 217.289 0 0016.145-15.718 262.531 262.531 0 004.13-4.557 238.375 238.375 0 0014.165-17.545c.614-.836 1.348-1.57 1.946-2.423.078-.149.147-.303.205-.461 58.866-82.495 58.866-193.265 0-275.762zm-19.473 32.291a203.074 203.074 0 0128.791 88.525H340.651a318.467 318.467 0 00-9.557-60.228 306.684 306.684 0 0082.995-28.297zM282.368 38.775c.956.222 1.877.529 2.833.751 6.11 1.434 12.169 3.072 18.091 5.12.905.307 1.792.666 2.68.99a229.53 229.53 0 0117.323 6.827c.99.461 1.963.973 2.953 1.434a220.423 220.423 0 0115.906 8.38l3.413 2.065a198.427 198.427 0 0114.336 9.643c1.195.87 2.389 1.707 3.567 2.662a155.714 155.714 0 0113.073 10.974c1.092.99 2.219 1.963 3.294 2.987 4.369 4.147 8.533 8.533 12.561 13.073.512.597 1.058 1.143 1.57 1.707a286.275 286.275 0 01-72.789 23.381 433.96 433.96 0 00-45.943-91.17c2.37.426 4.794.665 7.132 1.176zm-111.07 183.023a284.761 284.761 0 019.387-54.613 489.047 489.047 0 0058.266 3.413 490.158 490.158 0 0058.317-3.499 284.239 284.239 0 019.335 54.699H171.298zm135.305 34.134a284.761 284.761 0 01-9.387 54.613 489.047 489.047 0 00-58.266-3.413 490.32 490.32 0 00-58.317 3.413 284.313 284.313 0 01-9.336-54.613h135.306zM238.95 45.193a412.205 412.205 0 0147.565 88.747 451.706 451.706 0 01-47.565 2.526 455.121 455.121 0 01-47.514-2.543 415.453 415.453 0 0147.514-88.73zm-153.429 58.47c4.011-4.54 8.192-8.926 12.561-13.073 1.075-1.024 2.202-1.997 3.294-2.987a211.532 211.532 0 0113.073-10.974c1.178-.905 2.372-1.707 3.567-2.662a206.266 206.266 0 0114.336-9.643l3.413-2.065a203.843 203.843 0 0115.906-8.38c.99-.461 1.963-.973 2.953-1.434a193.056 193.056 0 0117.323-6.827c.887-.324 1.707-.683 2.679-.99 5.922-1.98 11.947-3.618 18.091-5.12.956-.222 1.877-.529 2.85-.734 2.338-.512 4.762-.751 7.134-1.178a433.99 433.99 0 00-45.961 91.187 286.262 286.262 0 01-72.789-23.381c.512-.596 1.058-1.142 1.57-1.739zm-21.709 29.611a306.63 306.63 0 0082.978 28.297 318.465 318.465 0 00-9.54 60.228H35.021a203.1 203.1 0 0128.791-88.525zm0 211.183a203.074 203.074 0 01-28.791-88.525H137.25a318.467 318.467 0 009.557 60.228 306.616 306.616 0 00-82.995 28.297zm131.721 94.498c-.956-.222-1.877-.529-2.833-.751-6.11-1.434-12.169-3.072-18.091-5.12-.905-.307-1.792-.666-2.68-.99a229.53 229.53 0 01-17.323-6.827c-.99-.461-1.963-.973-2.953-1.434a220.423 220.423 0 01-15.906-8.38l-3.413-2.065a198.427 198.427 0 01-14.336-9.643c-1.195-.87-2.389-1.707-3.567-2.662a155.714 155.714 0 01-13.073-10.974c-1.092-.99-2.219-1.963-3.294-2.987-4.369-4.147-8.533-8.533-12.561-13.073-.512-.597-1.058-1.143-1.57-1.707a286.275 286.275 0 0172.789-23.381 433.96 433.96 0 0045.943 91.17c-2.371-.425-4.794-.664-7.132-1.176zm43.417-6.417a412.205 412.205 0 01-47.565-88.747 444.302 444.302 0 0195.095 0l-.017.017a415.363 415.363 0 01-47.513 88.73zm153.43-58.471c-4.011 4.54-8.192 8.926-12.561 13.073-1.075 1.024-2.202 1.997-3.294 2.987a203.398 203.398 0 01-13.073 10.974 176.488 176.488 0 01-3.567 2.662 206.266 206.266 0 01-14.336 9.643l-3.413 2.065a207.805 207.805 0 01-15.906 8.38c-.99.461-1.963.973-2.953 1.434a193.056 193.056 0 01-17.323 6.827c-.887.324-1.707.683-2.679.99-5.922 1.98-11.947 3.618-18.091 5.12-.956.222-1.877.529-2.85.734-2.338.512-4.762.751-7.134 1.178a433.912 433.912 0 0045.943-91.17 286.262 286.262 0 0172.789 23.381c-.494.579-1.04 1.125-1.552 1.722zm21.709-29.61a306.63 306.63 0 00-82.978-28.297 318.465 318.465 0 009.54-60.228H442.88a203.108 203.108 0 01-28.791 88.525z"></path>
  </symbol>
</svg>