<svg width="0" height="0" class="hidden">
  <symbol xmlns="http://www.w3.org/2000/svg" viewBox="0 0 15 7" id="arrow">
    <path fill-rule="evenodd" clip-rule="evenodd" d="M0 3v1h11v3l4-3.5L11 0v3H0z"></path>
  </symbol>
  <symbol xmlns="http://www.w3.org/2000/svg" viewBox="0 0 19 16" id="photo">
    <path fill-rule="evenodd" clip-rule="evenodd" d="M3 3.5v-2a1 1 0 011-1h14a1 1 0 011 1v10a1 1 0 01-1 1h-2v2a1 1 0 01-1 1H1a1 1 0 01-1-1v-10a1 1 0 011-1h2zm12 9H4a1 1 0 01-1-1v-7H1v10h14v-2zM4 1.5v10h14v-10H4zm14 10H4v-1l3-3 3 2 4-4 4 5v1zm-8.5-5a1.5 1.5 0 110-3 1.5 1.5 0 010 3z"></path>
  </symbol>
  <symbol xmlns="http://www.w3.org/2000/svg" viewBox="0 0 18 18" id="search">
    <path fill-rule="evenodd" clip-rule="evenodd" d="M17.435 16.395l-4.289-4.455a7.238 7.238 0 001.707-4.673C14.853 3.26 11.59 0 7.577 0S.3 3.26.3 7.267c0 4.008 3.264 7.268 7.277 7.268a7.206 7.206 0 004.168-1.315l4.322 4.49c.181.187.424.29.684.29a.948.948 0 00.684-1.605zm-9.858-14.5a5.381 5.381 0 015.378 5.372 5.381 5.381 0 01-5.378 5.372 5.381 5.381 0 01-5.379-5.372 5.381 5.381 0 015.379-5.371z"></path>
  </symbol>
  <symbol xmlns="http://www.w3.org/2000/svg" viewBox="0 0 17 17" id="download">
    <path fill-rule="evenodd" clip-rule="evenodd" d="M16 12.426c0-.237.263-.426.5-.426s.5.189.5.426v4.134a.44.44 0 01-.432.44H.426A.435.435 0 010 16.56v-4.134C0 12.19.263 12 .5 12s.5.189.5.426V16h15v-3.574zM9 0v10h3l-3.5 4L5 10h3V0h1z"></path>
  </symbol>
  <symbol xmlns="http://www.w3.org/2000/svg" viewBox="0 0 56 72" id="file">
    <path fill-rule="evenodd" clip-rule="evenodd" d="M40 0l16 16v52a4 4 0 01-4 4H4a4 4 0 01-4-4V4a4 4 0 014-4h36zm-4 20V4H4v64h48V20H36z"></path>
  </symbol>
  <symbol xmlns="http://www.w3.org/2000/svg" viewBox="0 0 15 7" id="left-arrow">
    <path fill-rule="evenodd" clip-rule="evenodd" d="M15 3v1H4v3L0 3.5 4 0v3h11z"></path>
  </symbol>
  <symbol xmlns="http://www.w3.org/2000/svg" viewBox="0 0 18 17" id="home">
    <path fill-rule="evenodd" clip-rule="evenodd" d="M2 17h5v-6h4v6h5v-7h2L9 0 0 10h2v7z"></path>
  </symbol>
  <symbol xmlns="http://www.w3.org/2000/svg" viewBox="0 0 15 15" id="clock">
    <path fill-rule="evenodd" clip-rule="evenodd" d="M7.5 14.25a6.75 6.75 0 110-13.5 6.75 6.75 0 010 13.5zm.75-6.75v-3a.75.75 0 00-1.5 0v3.75c0 .414.336.75.75.75h2.25a.75.75 0 000-1.5h-1.5z"></path>
  </symbol>
  <symbol xmlns="http://www.w3.org/2000/svg" viewBox="0 0 22 28" id="bookmark">
    <path fill-rule="evenodd" clip-rule="evenodd" d="M3.5.5h15a3 3 0 013 3v24L11.142 20 .5 27.5v-24a3 3 0 013-3z"></path>
  </symbol>
</svg>