<svg width="40" height="18" viewBox="0 0 40 18" fill="none" xmlns="http://www.w3.org/2000/svg">
<path d="M1.92576 15.1313C2.56932 15.1313 3.14276 15.0246 3.64606 14.8112C4.15761 14.5978 4.58666 14.2982 4.93319 13.9124C5.27973 13.5267 5.54375 13.0588 5.72527 12.5089C5.91504 11.959 6.00993 11.3434 6.00993 10.6621V0H9.33914V10.6621C9.33914 11.7209 9.16587 12.7018 8.81934 13.6046C8.48105 14.4993 7.99013 15.275 7.34656 15.9316C6.71125 16.58 5.93567 17.0889 5.01982 17.4583C4.10398 17.8194 3.07263 18 1.92576 18C0.770641 18 -0.26484 17.8194 -1.18068 17.4583C-2.09653 17.0889 -2.87623 16.58 -3.5198 15.9316C-4.15511 15.275 -4.64604 14.4993 -4.99257 13.6046C-5.33086 12.7018 -5.5 11.7209 -5.5 10.6621V0H-2.17078V10.6498C-2.17078 11.3311 -2.08003 11.9466 -1.89851 12.4966C-1.70874 13.0465 -1.44059 13.5185 -1.09405 13.9124C-0.739264 14.2982 -0.31022 14.5978 0.193082 14.8112C0.704634 15.0246 1.28219 15.1313 1.92576 15.1313Z" fill="white"/>
<path d="M28.1805 0V17.803H26.4725C26.2085 17.803 25.9857 17.762 25.8042 17.6799C25.6309 17.5896 25.4618 17.4419 25.2968 17.2367L15.9527 5.36799C16.0022 5.90971 16.027 6.4104 16.027 6.87004V17.803H13.0938V0H14.8388C14.9791 0 15.0987 0.00820777 15.1978 0.0246234C15.305 0.0328317 15.3958 0.057456 15.47 0.0984956C15.5525 0.131328 15.6309 0.184679 15.7052 0.25855C15.7794 0.324214 15.8619 0.414501 15.9527 0.529412L25.3339 12.4473C25.3092 12.1601 25.2885 11.8769 25.272 11.5978C25.2555 11.3187 25.2473 11.0602 25.2473 10.8222V0H28.1805Z" fill="white"/>
<path d="M47.5 0L40.2723 17.803H37.2648L30.0371 0H32.7104C32.9991 0 33.2343 0.0697678 33.4158 0.209303C33.5973 0.348838 33.7335 0.529412 33.8242 0.751026L38.0445 11.6101C38.1848 11.9631 38.3168 12.3529 38.4406 12.7798C38.5726 13.1984 38.6964 13.6375 38.8119 14.0971C38.9109 13.6375 39.0181 13.1984 39.1336 12.7798C39.2492 12.3529 39.377 11.9631 39.5173 11.6101L43.7129 0.751026C43.7789 0.562243 43.9068 0.389877 44.0965 0.233927C44.2945 0.0779756 44.5338 0 44.8144 0H47.5Z" fill="white"/>
</svg>
